<?xml version="1.0" encoding="utf-8"?>
<!-- Generator: Adobe Illustrator 17.1.0, SVG Export Plug-In . SVG Version: 6.00 Build 0)  -->
<!DOCTYPE svg PUBLIC "-//W3C//DTD SVG 1.1//EN" "http://www.w3.org/Graphics/SVG/1.1/DTD/svg11.dtd">
<svg version="1.1" id="Layer_2" xmlns="http://www.w3.org/2000/svg" xmlns:xlink="http://www.w3.org/1999/xlink" x="0px" y="0px"
	 viewBox="0 0 505 383" enable-background="new 0 0 505 383" xml:space="preserve">
<g>
	<rect x="1" y="62" fill="none" stroke="#0267B7" stroke-width="2" stroke-miterlimit="10" width="503" height="320"/>
	<rect x="201" y="1" fill="none" stroke="#0267B7" stroke-width="2" stroke-miterlimit="10" width="299" height="60"/>
	<g>
		<g>
			<rect x="1" y="62" fill="#90B9DB" stroke="#0267B7" stroke-width="2" stroke-miterlimit="10" width="101" height="80"/>
			<rect x="6.667" y="97.465" fill="none" width="90.333" height="10.5"/>
			<text transform="matrix(1 0 0 1 6.6664 106.0568)" font-family="'Arial-BoldMT'" font-size="12">Total</text>
		</g>
		<g>
			<rect x="1" y="142" fill="#90B9DB" stroke="#0267B7" stroke-width="2" stroke-miterlimit="10" width="101" height="80"/>
			<rect x="6.667" y="177.465" fill="none" width="90.333" height="10.5"/>
			<text transform="matrix(1 0 0 1 6.6664 186.0568)" font-family="'Arial-BoldMT'" font-size="12">18 - 24</text>
		</g>
		<g>
			<rect x="1" y="222" fill="#90B9DB" stroke="#0267B7" stroke-width="2" stroke-miterlimit="10" width="101" height="80"/>
			<rect x="6.667" y="257.465" fill="none" width="90.333" height="10.5"/>
			<text transform="matrix(1 0 0 1 6.6664 266.0567)" font-family="'Arial-BoldMT'" font-size="12">25 - 34</text>
		</g>
		<g>
			<rect x="1" y="302" fill="#90B9DB" stroke="#0267B7" stroke-width="2" stroke-miterlimit="10" width="101" height="80"/>
			<rect x="6.667" y="337.465" fill="none" width="90.333" height="10.5"/>
			<text transform="matrix(1 0 0 1 6.6664 346.0567)" font-family="'Arial-BoldMT'" font-size="12">35 - 49</text>
		</g>
	</g>
	<g>
		<g>
			<rect x="102" y="62" fill="#A3C5E3" stroke="#0267B7" stroke-width="2" stroke-miterlimit="10" width="101" height="80"/>
			<rect x="107.667" y="65.132" fill="none" width="90.333" height="75.333"/>
			<text transform="matrix(1 0 0 1 160.7029 73.0079)"><tspan x="0" y="0" font-family="'ArialMT'" font-size="11">Sample</tspan><tspan x="-37.909" y="13.2" font-family="'ArialMT'" font-size="11">Weighted (000)</tspan><tspan x="-12.219" y="26.399" font-family="'ArialMT'" font-size="11">Vertical %</tspan><tspan x="-25.062" y="39.6" font-family="'ArialMT'" font-size="11">Horizontal %</tspan><tspan x="10.388" y="52.8" font-family="'ArialMT'" font-size="11">Index</tspan><tspan x="3.062" y="66" font-family="'ArialMT'" font-size="11">Total%</tspan></text>
		</g>
		<g>
			<rect x="102" y="142" fill="#A3C5E3" stroke="#0267B7" stroke-width="2" stroke-miterlimit="10" width="101" height="80"/>
			<rect x="107.667" y="145.132" fill="none" width="90.333" height="75.333"/>
			<text transform="matrix(1 0 0 1 160.7029 153.0079)"><tspan x="0" y="0" font-family="'ArialMT'" font-size="11">Sample</tspan><tspan x="-37.909" y="13.2" font-family="'ArialMT'" font-size="11">Weighted (000)</tspan><tspan x="-12.219" y="26.399" font-family="'ArialMT'" font-size="11">Vertical %</tspan><tspan x="-25.062" y="39.6" font-family="'ArialMT'" font-size="11">Horizontal %</tspan><tspan x="10.388" y="52.8" font-family="'ArialMT'" font-size="11">Index</tspan><tspan x="3.062" y="66" font-family="'ArialMT'" font-size="11">Total%</tspan></text>
		</g>
		<g>
			<rect x="102" y="222" fill="#A3C5E3" stroke="#0267B7" stroke-width="2" stroke-miterlimit="10" width="101" height="80"/>
			<rect x="107.667" y="225.132" fill="none" width="90.333" height="75.333"/>
			<text transform="matrix(1 0 0 1 160.7029 233.0079)"><tspan x="0" y="0" font-family="'ArialMT'" font-size="11">Sample</tspan><tspan x="-37.909" y="13.2" font-family="'ArialMT'" font-size="11">Weighted (000)</tspan><tspan x="-12.219" y="26.399" font-family="'ArialMT'" font-size="11">Vertical %</tspan><tspan x="-25.062" y="39.6" font-family="'ArialMT'" font-size="11">Horizontal %</tspan><tspan x="10.388" y="52.8" font-family="'ArialMT'" font-size="11">Index</tspan><tspan x="3.062" y="66" font-family="'ArialMT'" font-size="11">Total%</tspan></text>
		</g>
		<g>
			<rect x="102" y="302" fill="#A3C5E3" stroke="#0267B7" stroke-width="2" stroke-miterlimit="10" width="101" height="80"/>
			<rect x="107.667" y="305.132" fill="none" width="90.333" height="75.333"/>
			<text transform="matrix(1 0 0 1 160.7029 313.0079)"><tspan x="0" y="0" font-family="'ArialMT'" font-size="11">Sample</tspan><tspan x="-37.909" y="13.2" font-family="'ArialMT'" font-size="11">Weighted (000)</tspan><tspan x="-12.219" y="26.399" font-family="'ArialMT'" font-size="11">Vertical %</tspan><tspan x="-25.062" y="39.6" font-family="'ArialMT'" font-size="11">Horizontal %</tspan><tspan x="10.388" y="52.8" font-family="'ArialMT'" font-size="11">Index</tspan><tspan x="3.062" y="66" font-family="'ArialMT'" font-size="11">Total%</tspan></text>
		</g>
	</g>
	<g>
		<polygon fill="#A3C5E3" points="282.974,17 288.5,7.429 294.026,17 		"/>
		<polygon fill="#A3C5E3" points="294.026,22 288.5,31.571 282.974,22 		"/>
	</g>
	<g>
		<rect x="201" y="1" fill="#90B9DB" stroke="#0267B7" stroke-width="2" stroke-miterlimit="10" width="101" height="61"/>
		<rect x="232" y="6.965" fill="none" width="65" height="13.5"/>
		<text transform="matrix(1 0 0 1 231.9998 15.5567)" font-family="'Arial-BoldMT'" font-size="12">Total</text>
		<g>
			<polygon fill="#A3C5E3" points="284.974,17 290.5,7.429 296.026,17 			"/>
			<polygon fill="#A3C5E3" points="296.026,22 290.5,31.571 284.974,22 			"/>
		</g>
		<rect x="302" y="1" fill="#90B9DB" stroke="#0267B7" stroke-width="2" stroke-miterlimit="10" width="101" height="61"/>
		<rect x="307.667" y="6.965" fill="none" width="90.333" height="13.5"/>
		<text transform="matrix(1 0 0 1 307.6663 15.5567)" font-family="'Arial-BoldMT'" font-size="12">DIET COKE</text>
		<g>
			<polygon fill="#A3C5E3" points="385.974,17 391.5,7.429 397.026,17 			"/>
			<polygon fill="#A3C5E3" points="397.026,22 391.5,31.571 385.974,22 			"/>
		</g>
		<rect x="403" y="1" fill="#90B9DB" stroke="#0267B7" stroke-width="2" stroke-miterlimit="10" width="101" height="61"/>
		<rect x="408.667" y="6.965" fill="none" width="90.333" height="13.5"/>
		<text transform="matrix(1 0 0 1 408.6663 15.5567)" font-family="'Arial-BoldMT'" font-size="12">DIET PEPSI</text>
		<g>
			<polygon fill="#A3C5E3" points="486.974,17 492.5,7.429 498.026,17 			"/>
			<polygon fill="#A3C5E3" points="498.026,22 492.5,31.571 486.974,22 			"/>
		</g>
	</g>
	<g>
		<rect x="201" y="62" fill="#F2F2F2" stroke="#0267B7" stroke-width="2" stroke-miterlimit="10" width="101" height="80"/>
		<rect x="206.667" y="65.132" fill="none" width="90.333" height="75.333"/>
		<text transform="matrix(1 0 0 1 263.3552 73.0079)"><tspan x="0" y="0" font-family="'Arial-BoldMT'" font-size="11">12,350</tspan><tspan x="-6.118" y="13.2" font-family="'Arial-BoldMT'" font-size="11">225,862</tspan><tspan x="5.511" y="26.399" font-family="'Arial-BoldMT'" font-size="11">100%</tspan><tspan x="5.511" y="39.6" font-family="'Arial-BoldMT'" font-size="11">100%</tspan><tspan x="15.292" y="52.8" font-family="'Arial-BoldMT'" font-size="11">100</tspan><tspan x="5.511" y="66" font-family="'Arial-BoldMT'" font-size="11">100%</tspan></text>
		<rect x="201" y="142" fill="#F2F2F2" stroke="#0267B7" stroke-width="2" stroke-miterlimit="10" width="101" height="80"/>
		<rect x="206.667" y="145.132" fill="none" width="90.333" height="75.333"/>
		<text transform="matrix(1 0 0 1 269.4729 153.0079)"><tspan x="0" y="0" font-family="'ArialMT'" font-size="11">1,120</tspan><tspan x="-6.118" y="13.2" font-family="'ArialMT'" font-size="11">26,832</tspan><tspan x="-3.663" y="26.399" font-family="'ArialMT'" font-size="11">11.9%</tspan><tspan x="-9.781" y="39.6" font-family="'ArialMT'" font-size="11">100.0%</tspan><tspan x="9.174" y="52.8" font-family="'ArialMT'" font-size="11">100</tspan><tspan x="-3.663" y="66" font-family="'ArialMT'" font-size="11">11.9%</tspan></text>
		<rect x="201" y="222" fill="#F2F2F2" stroke="#0267B7" stroke-width="2" stroke-miterlimit="10" width="101" height="80"/>
		<rect x="206.667" y="225.132" fill="none" width="90.333" height="75.333"/>
		<text transform="matrix(1 0 0 1 269.4729 233.0079)"><tspan x="0" y="0" font-family="'ArialMT'" font-size="11">1,283</tspan><tspan x="-6.118" y="13.2" font-family="'ArialMT'" font-size="11">39,874</tspan><tspan x="-3.663" y="26.399" font-family="'ArialMT'" font-size="11">17.7%</tspan><tspan x="-9.781" y="39.6" font-family="'ArialMT'" font-size="11">100.0%</tspan><tspan x="9.174" y="52.8" font-family="'ArialMT'" font-size="11">100</tspan><tspan x="-3.663" y="66" font-family="'ArialMT'" font-size="11">17.7%</tspan></text>
		<rect x="201" y="302" fill="#F2F2F2" stroke="#0267B7" stroke-width="2" stroke-miterlimit="10" width="101" height="80"/>
		<rect x="206.667" y="305.132" fill="none" width="90.333" height="75.333"/>
		<text transform="matrix(1 0 0 1 269.4729 313.0079)"><tspan x="0" y="0" font-family="'ArialMT'" font-size="11">3,183</tspan><tspan x="-6.118" y="13.2" font-family="'ArialMT'" font-size="11">60,686</tspan><tspan x="-3.663" y="26.399" font-family="'ArialMT'" font-size="11">26.9%</tspan><tspan x="-9.781" y="39.6" font-family="'ArialMT'" font-size="11">100.0%</tspan><tspan x="9.174" y="52.8" font-family="'ArialMT'" font-size="11">100</tspan><tspan x="-3.663" y="66" font-family="'ArialMT'" font-size="11">26.9%</tspan></text>
		<rect x="302" y="62" fill="#F2F2F2" stroke="#0267B7" stroke-width="2" stroke-miterlimit="10" width="101" height="80"/>
		<rect x="307.667" y="65.132" fill="none" width="90.333" height="75.333"/>
		<text transform="matrix(1 0 0 1 370.4729 73.0079)"><tspan x="0" y="0" font-family="'Arial-BoldMT'" font-size="11">2,362</tspan><tspan x="-6.118" y="13.2" font-family="'Arial-BoldMT'" font-size="11">40,723</tspan><tspan x="-9.781" y="26.399" font-family="'Arial-BoldMT'" font-size="11">100.0%</tspan><tspan x="-3.663" y="39.6" font-family="'Arial-BoldMT'" font-size="11">18.0%</tspan><tspan x="9.174" y="52.8" font-family="'Arial-BoldMT'" font-size="11">100</tspan><tspan x="-3.663" y="66" font-family="'Arial-BoldMT'" font-size="11">18.0%</tspan></text>
		<rect x="302" y="142" fill="#F2F2F2" stroke="#0267B7" stroke-width="2" stroke-miterlimit="10" width="101" height="80"/>
		<rect x="307.667" y="145.132" fill="none" width="90.333" height="75.333"/>
		<text transform="matrix(1 0 0 1 379.6467 153.0079)"><tspan x="0" y="0" font-family="'ArialMT'" font-size="11">139</tspan><tspan x="-9.174" y="13.2" font-family="'ArialMT'" font-size="11">3,578</tspan><tspan x="-6.719" y="26.399" font-family="'ArialMT'" font-size="11">8.8%</tspan><tspan x="-12.837" y="39.6" font-family="'ArialMT'" font-size="11">13.3%</tspan><tspan x="6.118" y="52.8" font-family="'ArialMT'" font-size="11">74</tspan><tspan x="-6.719" y="66" font-family="'ArialMT'" font-size="11">1.6%</tspan></text>
		<rect x="302" y="222" fill="#F2F2F2" stroke="#0267B7" stroke-width="2" stroke-miterlimit="10" width="101" height="80"/>
		<rect x="307.667" y="225.132" fill="none" width="90.333" height="75.333"/>
		<text transform="matrix(1 0 0 1 379.6467 233.0079)"><tspan x="0" y="0" font-family="'ArialMT'" font-size="11">210</tspan><tspan x="-9.174" y="13.2" font-family="'ArialMT'" font-size="11">6,350</tspan><tspan x="-12.837" y="26.399" font-family="'ArialMT'" font-size="11">15.6%</tspan><tspan x="-12.837" y="39.6" font-family="'ArialMT'" font-size="11">15.9%</tspan><tspan x="6.118" y="52.8" font-family="'ArialMT'" font-size="11">88</tspan><tspan x="-6.719" y="66" font-family="'ArialMT'" font-size="11">2.8%</tspan></text>
		<rect x="302" y="302" fill="#FCEE21" stroke="#0267B7" stroke-width="2" stroke-miterlimit="10" width="101" height="80"/>
		<rect x="307.667" y="305.132" fill="none" width="90.333" height="75.333"/>
		<text transform="matrix(1 0 0 1 379.6467 313.0079)"><tspan x="0" y="0" font-family="'ArialMT'" font-size="11">626</tspan><tspan x="-15.292" y="13.2" font-family="'ArialMT'" font-size="11">11,299</tspan><tspan x="-12.837" y="26.399" font-family="'ArialMT'" font-size="11">27.7%</tspan><tspan x="-12.837" y="39.6" font-family="'ArialMT'" font-size="11">18.6%</tspan><tspan x="0" y="52.8" font-family="'ArialMT'" font-size="11">103</tspan><tspan x="-6.719" y="66" font-family="'ArialMT'" font-size="11">5.0%</tspan></text>
		<rect x="403" y="62" fill="#F2F2F2" stroke="#0267B7" stroke-width="2" stroke-miterlimit="10" width="101" height="80"/>
		<rect x="408.667" y="65.132" fill="none" width="90.333" height="75.333"/>
		<text transform="matrix(1 0 0 1 471.4729 73.0079)"><tspan x="0" y="0" font-family="'Arial-BoldMT'" font-size="11">1,206</tspan><tspan x="-6.118" y="13.2" font-family="'Arial-BoldMT'" font-size="11">24,555</tspan><tspan x="-9.781" y="26.399" font-family="'Arial-BoldMT'" font-size="11">100.0%</tspan><tspan x="-3.663" y="39.6" font-family="'Arial-BoldMT'" font-size="11">10.9%</tspan><tspan x="9.174" y="52.8" font-family="'Arial-BoldMT'" font-size="11">100</tspan><tspan x="-3.663" y="66" font-family="'Arial-BoldMT'" font-size="11">10.9%</tspan></text>
		<rect x="403" y="142" fill="#F2F2F2" stroke="#0267B7" stroke-width="2" stroke-miterlimit="10" width="101" height="80"/>
		<rect x="408.667" y="145.132" fill="none" width="90.333" height="75.333"/>
		<text transform="matrix(1 0 0 1 486.7644 153.0079)"><tspan x="0" y="0" font-family="'ArialMT'" font-size="11">73</tspan><tspan x="-15.292" y="13.2" font-family="'ArialMT'" font-size="11">2,397</tspan><tspan x="-12.837" y="26.399" font-family="'ArialMT'" font-size="11">9.8%</tspan><tspan x="-12.837" y="39.6" font-family="'ArialMT'" font-size="11">8.9%</tspan><tspan x="0" y="52.8" font-family="'ArialMT'" font-size="11">82</tspan><tspan x="-12.837" y="66" font-family="'ArialMT'" font-size="11">1.1%</tspan></text>
		<rect x="403" y="222" fill="#F2F2F2" stroke="#0267B7" stroke-width="2" stroke-miterlimit="10" width="101" height="80"/>
		<rect x="408.667" y="225.132" fill="none" width="90.333" height="75.333"/>
		<text transform="matrix(1 0 0 1 480.6467 233.0079)"><tspan x="0" y="0" font-family="'ArialMT'" font-size="11">102</tspan><tspan x="-9.174" y="13.2" font-family="'ArialMT'" font-size="11">3,715</tspan><tspan x="-12.837" y="26.399" font-family="'ArialMT'" font-size="11">15.1%</tspan><tspan x="-6.719" y="39.6" font-family="'ArialMT'" font-size="11">9.3%</tspan><tspan x="6.118" y="52.8" font-family="'ArialMT'" font-size="11">86</tspan><tspan x="-6.719" y="66" font-family="'ArialMT'" font-size="11">1.6%</tspan></text>
		<rect x="403" y="302" fill="#F2F2F2" stroke="#0267B7" stroke-width="2" stroke-miterlimit="10" width="101" height="80"/>
		<rect x="408.667" y="305.132" fill="none" width="90.333" height="75.333"/>
		<text transform="matrix(1 0 0 1 480.6467 313.0079)"><tspan x="0" y="0" font-family="'ArialMT'" font-size="11">291</tspan><tspan x="-9.174" y="13.2" font-family="'ArialMT'" font-size="11">6,137</tspan><tspan x="-12.837" y="26.399" font-family="'ArialMT'" font-size="11">25.0%</tspan><tspan x="-12.837" y="39.6" font-family="'ArialMT'" font-size="11">10.1%</tspan><tspan x="6.118" y="52.8" font-family="'ArialMT'" font-size="11">93</tspan><tspan x="-6.719" y="66" font-family="'ArialMT'" font-size="11">2.7%</tspan></text>
	</g>
	<g>
		<path fill="#FF0000" d="M367.615,380.465h-1.312l-3.281-3.24l-3.24,3.24h-1.354v-1.312l3.24-3.281l-3.24-3.24v-1.354h1.354
			l3.24,3.24l3.281-3.24h1.312v1.354l-3.24,3.24l3.24,3.24V380.465z"/>
	</g>
	<g>
		<path fill="#009245" d="M363.021,334.464l-5.906,5.906l-3.281-3.281v-3.938l3.281,3.271l5.906-5.896V334.464z"/>
	</g>
</g>
</svg>
